# xmcd
#
# Track frame offsets:
#	150
#	14486
#	29475
#	43586
#	57004
#	70734
#	84248
#	98220
#	111850
#	125768
#	139572
#	151379
#	164294
#	176343
#	191683
#	206247
#	218840
#	231643
#	244784
#	257958
#	270298
#	283246
#	296983
#	311334
#	324735
#
# Disc length: 4483 seconds
# Revision: 0
# Processed by: cddbd v1.5.2PL0 Copyright (c) Steve Scherf et al.
# Submitted via: dBpowerAMP V12.0
#
DISCID=7a118119
DTITLE=Gene Autry - Early Sides
DYEAR=1931
DGENRE=Country
TTITLE0=High Steppin' Mama Blues
TTITLE1=She Wouldn't Do It
TTITLE2=Do Right Daddy Blues
TTITLE3=T.B. Blues
TTITLE4=Jimmie the Kid
TTITLE5=Travellin' Blues
TTITLE6=There's a Good Gal in the Mountains
TTITLE7=She's a Low Down Mama
TTITLE8=The Old Woman and the Cow
TTITLE9=Bear Cat Mama from Horner's Corners
TTITLE10=She's a Hum Dum Dinger
TTITLE11=Valley in the Hills
TTITLE12=She's Always on My Mind
TTITLE13=I'm Blue and Lonesome
TTITLE14=Pistol Packin' Papa
TTITLE15=Jailhouse Blues
TTITLE16=That's How I Got My Start
TTITLE17=Methodist Pie
TTITLE18=Do Right Daddy Blues
TTITLE19=Money Ain't No Use Anyhouse
TTITLE20=I'll Be Thinking of You, Little Girl
TTITLE21=Dallas County Jail Blues
TTITLE22=She Wouldn't Do It
TTITLE23=T.B. Blues
TTITLE24=True Blue Bill
EXTD=
EXTT0=
EXTT1=
EXTT2=
EXTT3=
EXTT4=
EXTT5=
EXTT6=
EXTT7=
EXTT8=
EXTT9=
EXTT10=
EXTT11=
EXTT12=
EXTT13=
EXTT14=
EXTT15=
EXTT16=
EXTT17=
EXTT18=
EXTT19=
EXTT20=
EXTT21=
EXTT22=
EXTT23=
EXTT24=
PLAYORDER=
